<svg id="Layer_1" data-name="Layer 1" xmlns="http://www.w3.org/2000/svg" viewBox="0 0 979.92569 979.65869">
  <title>arr</title>
  <g>
    <path d="M449.5,1.1C398.6,3.6,331,22.2,275.5,48.9,239.6,66.2,207.4,87,175,113.8c-14,11.6-48.5,46-59.9,59.7-59.6,71.7-97.7,156.9-111,248C-1.4,459.1-1.4,521.2,4,558A510.33525,510.33525,0,0,0,77.2,754.8c32.7,51.7,87.3,107.4,139.5,142.3,106.4,71.2,237.4,97.9,364.9,74.4C701.2,949.4,807,883,883.3,782.2,959,682.3,992,555.5,975.9,426.5c-17.2-138-91.5-258.9-210.2-342.4C709.6,44.7,631.1,14.5,555.5,3.5,533.6.3,486.6-.8,449.5,1.1ZM529,99.5c80.9,9.2,150.5,38.6,212.7,89.9,5.9,5,17.8,16,26.3,24.5,64,64.3,103,146.6,112.5,237.3,1.9,18.8,1.9,57.5,0,76.5-7.2,70.6-31.7,135.3-72.8,191.8-21.2,29.1-52.3,60.8-81.3,82.6-57.8,43.7-123.1,69.6-196.9,78.1-17.1,2-65.8,1.7-83-.6A438.803,438.803,0,0,1,392,869.4C298.6,845,217,787.2,164.6,708.5A397.48358,397.48358,0,0,1,98.9,519.3c-1.5-18.2-.7-60.5,1.5-77.3,7.2-55.1,24.5-105.3,52.3-152C218.2,180.3,330,110.4,459.5,98.1,473.1,96.8,512.4,97.6,529,99.5Z" transform="translate(0.03759 -0.16665)"/>
    <path d="M500.7,264.5c-16.9,15.9-49.7,49.9-49.7,51.6,0,1.3,40.7,43.3,82.4,84.9,21.8,21.7,39.6,39.8,39.6,40.2,0,.5-74,.8-164.5.8H244v96H408.5c90.5,0,164.5.3,164.5.7,0,.3-26.7,27.4-59.3,60.2s-60.1,60.8-61.1,62.3l-1.8,2.8,6,6.7c10.3,11.7,60,60.3,61.6,60.3,1.9,0,79.1-75.8,172.1-169l72-72.1-117-116.7c-64.4-64.2-119.3-118.6-122.1-121l-5.2-4.2Z" transform="translate(0.03759 -0.16665)"/>
  </g>
</svg>
