<?xml version="1.0" encoding="utf-8"?>
<!-- Generator: Adobe Illustrator 24.0.0, SVG Export Plug-In . SVG Version: 6.00 Build 0)  -->
<svg version="1.1" id="Capa_1" xmlns="http://www.w3.org/2000/svg" xmlns:xlink="http://www.w3.org/1999/xlink" x="0px" y="0px"
	 viewBox="0 0 300 512" style="enable-background:new 0 0 300 512;" xml:space="preserve">
<style type="text/css">
	.st0{fill:#FFFF33;}
</style>
<path class="st0" d="M247.8,344.4H65.9c-27.2,0-49.3-22.1-49.3-49.3V66.7c0-27.2,22.1-49.3,49.3-49.3h181.9
	c27.2,0,49.3,22.1,49.3,49.3v228.4C297.1,322.3,275,344.4,247.8,344.4z"/>
<title>bus-stop</title>
<path d="M133.1,408.9c-3.9-3.9-10.2-3.9-14.1,0c-3.9,3.9-3.9,10.2,0,14.1c3.9,3.9,10.2,3.9,14.1,0c1.9-1.9,2.9-4.4,2.9-7.1
	C136,413.3,134.9,410.8,133.1,408.9z"/>
<path d="M126,445c-5.5,0-10,4.5-10,10v47c0,5.5,4.5,10,10,10s10-4.5,10-10v-47C136,449.5,131.5,445,126,445z"/>
<path d="M290,153.7c5.5,0,10-4.5,10-10V58c0-32-26-58-58-58H58C26,0,0,26,0,58v244c0,32,26,58,58,58h58v17c0,5.5,4.5,10,10,10
	s10-4.5,10-10v-17h28v142c0,5.5,4.5,10,10,10s10-4.5,10-10V360h58c32,0,58-26,58-58v-84c0-5.5-4.5-10-10-10s-10,4.5-10,10v84
	c0,21-17,38-38,38H58c-21,0-38-17-38-38V58c0-21,17-38,38-38h184c21,0,38,17,38,38v85.7C280,149.2,284.5,153.7,290,153.7z"/>
<path d="M297.1,176c-3.9-3.9-10.2-3.9-14.1,0c-3.9,3.9-3.9,10.2,0,14.1s10.2,3.9,14.1,0c1.9-1.9,2.9-4.4,2.9-7.1
	C300,180.4,298.9,177.9,297.1,176z"/>
<path d="M223.3,54H76.7C60.9,54,48,66.9,48,82.7v81c0,5.5,4.5,10,10,10h11.4c5.5,15.6,22.7,23.8,38.3,18.3c8.5-3,15.3-9.7,18.3-18.3
	h47.8c5.5,15.6,22.7,23.8,38.3,18.3c8.5-3,15.3-9.7,18.3-18.3H242c5.5,0,10-4.5,10-10v-81C252,66.9,239.1,54,223.3,54z M131.8,74
	h36.5v29.9h-36.5V74z M68,82.7c0-4.8,3.9-8.7,8.7-8.7h35v29.9H68V82.7z M107.6,164.8c-0.6,5.5-5.6,9.4-11.1,8.8s-9.4-5.6-8.8-11.1
	c0.6-5.5,5.6-9.4,11.1-8.8c4.6,0.5,8.3,4.2,8.8,8.8C107.5,163.3,107.5,164.1,107.6,164.8z M202,173.7c-5.5,0-10-4.5-10-10
	s4.5-10,10-10s10,4.5,10,10C212,169.2,207.5,173.7,202,173.7z M232,153.7h-1.7c-5.5-15.6-22.7-23.8-38.3-18.3
	c-8.5,3-15.3,9.7-18.3,18.3h-47.8c-5.5-15.6-22.7-23.8-38.3-18.3c-8.5,3-15.3,9.7-18.3,18.3H68v-29.9h164V153.7z M232,103.9h-43.8
	V74h35c4.8,0,8.7,3.9,8.7,8.7V103.9z"/>
<path d="M110.4,247.9c0-15.5-12.5-28-28-28H58c-5.5,0-10,4.5-10,10v72c0,5.5,4.5,10,10,10h24.4c15.5,0,28-12.5,28-28
	c0-6.6-2.3-13-6.6-18C108,260.9,110.4,254.5,110.4,247.9z M82.4,291.9H68v-16h14.4c4.4,0,8,3.6,8,8S86.8,291.9,82.4,291.9z
	 M82.4,255.9H68v-16h14.4c4.4,0,8,3.6,8,8S86.8,255.9,82.4,255.9z"/>
<path d="M171.1,219.9c-5.5,0-10,4.5-10,10v52c0,5.5-4.5,10-10,10c-5.5,0-10-4.5-10-10v-52c0-5.5-4.5-10-10-10s-10,4.5-10,10v52
	c0,16.6,13.4,30,30,30s30-13.4,30-30v-52C181.1,224.4,176.6,219.9,171.1,219.9z"/>
<path d="M225.2,255.9h-6.4c-4.4,0-8-3.6-8-8s3.6-8,8-8h12.7c5.5,0,10-4.5,10-10s-4.5-10-10-10h-12.7c-15.5,0-28,12.5-28,28
	c0,15.5,12.5,28,28,28h6.4c4.4,0,8,3.6,8,8s-3.6,8-8,8h-16.6c-5.5,0-10,4.5-10,10s4.5,10,10,10h16.6c15.5,0,28-12.5,28-28
	S240.6,255.9,225.2,255.9L225.2,255.9z"/>
</svg>
