<svg id="Layer_1" data-name="Layer 1" xmlns="http://www.w3.org/2000/svg" viewBox="0 0 370.00003 488.925">
  <defs>
    <style>
      .cls-1 {
        fill: #ce5fb9;
      }

      .cls-2 {
        fill: #fcf8f2;
      }

      .cls-3 {
        fill: #a32c7b;
      }

      .cls-4 {
        fill: #57585b;
      }

      .cls-5 {
        fill: #4f5054;
      }
    </style>
  </defs>
  <title>trainSecond</title>
  <path class="cls-1" d="M436.2,150.2c-35.8-200.3-324.5-200.3-360.3,0A310.53029,310.53029,0,0,0,71,205.1c0,126.7,76.1,235.7,185,283.8,109-48.1,185-157,185-283.8A311.37355,311.37355,0,0,0,436.2,150.2Z" transform="translate(-71 0.02501)"/>
  <path class="cls-2" d="M404.9,183.8A144.854,144.854,0,0,1,276.6,327.7a151.1382,151.1382,0,0,1-16.6.9,144.9,144.9,0,0,1,0-289.8,130.93957,130.93957,0,0,1,16.6,1A145.02621,145.02621,0,0,1,404.9,183.8Z" transform="translate(-71 0.02501)"/>
  <path class="cls-3" d="M273.8,29.5a154.73753,154.73753,0,0,0-36.8.2c-16.5,2-21.2-22-5.1-26.4A89.67464,89.67464,0,0,1,256,.1C174.9,0,93.7,50.1,75.8,150.2A310.53614,310.53614,0,0,0,71,205.1c0,126.7,76.1,235.7,185,283.8-34.2-22.3-63.6-57.6-85.3-101.6-14.5-29.3,12.6-62.4,44.2-53.7a154.99616,154.99616,0,0,0,41.1,5.5,151.71946,151.71946,0,0,0,17.8-1,155.32632,155.32632,0,0,0,0-308.6Zm-2.4,287.8a131.26585,131.26585,0,0,1-15.4.9,134.60779,134.60779,0,0,1-124.5-83.7h0A134.42435,134.42435,0,0,1,256,49.4a132.54276,132.54276,0,0,1,15.4.9,134.3834,134.3834,0,0,1,0,267Z" transform="translate(-71 0.02501)"/>
  <path class="cls-4" d="M262.0833,102.35338h-6.60357c-32.75985,0-59.35613,1.85631-59.35613,34.633v51.13744c0,33.93407,2.58965,49.1009,8.70993,55.63555l-2.82291,49.69641L211.68713,294l2.20973-38.8969h1.57095l-2.84853,38.61241H305.382l-1.821-38.61241h.16434L305.95277,294l9.64205-.54426-2.944-52.00068c5.8782-7.55337,8.831-22.858,8.831-53.32157V136.9872C321.48273,104.20881,294.8953,102.35338,262.0833,102.35338ZM238.58647,212.0615H212.62015V200.08867h25.96632Zm66.40856,0H278.99424V200.08867H304.995Zm.39671-28.88376H209.79726v-54.168h95.59448Z" transform="translate(-71 0.02501)"/>
  <path class="cls-5" d="M247.948,91.6555h-7.22v8.637h39.286v-8.637h-6.751V59.6485h14.118v-4.162H232.619v4.162h15.329Zm1.045-32.007h23.214v32.007H248.993Z" transform="translate(-71 0.02501)"/>
</svg>
