<svg id="Layer_1" data-name="Layer 1" xmlns="http://www.w3.org/2000/svg" viewBox="0 0 373.25966 405.5219">
  <defs>
    <style>
      .cls-1 {
        fill: #fff;
      }

      .cls-2 {
        fill: #0078a2;
      }

      .cls-3 {
        fill: #3891c4;
      }

      .cls-4 {
        fill: #93603e;
      }

      .cls-5 {
        fill: #7f4c2f;
      }

      .cls-6 {
        fill: #c16b3d;
      }

      .cls-7 {
        fill: #af542c;
      }

      .cls-8 {
        fill: #ffa92c;
      }

      .cls-9 {
        fill: #f49519;
      }

      .cls-10 {
        fill: #6edcf9;
      }

      .cls-11 {
        fill: #4ac8dd;
      }

      .cls-12 {
        fill: #585a60;
      }

      .cls-13 {
        fill: #414356;
      }

      .cls-14 {
        fill: #25b9c1;
      }
    </style>
  </defs>
  <title>trainStationFinal</title>
  <g id="Layer_2" data-name="Layer 2">
    <g id="Capa_1" data-name="Capa 1">
      <circle class="cls-1" cx="214.53691" cy="202.76089" r="148.48"/>
      <path d="M214.537,44.041c-45.568,0-86.016,18.944-115.2,49.664H10.249V5.129A4.83724,4.83724,0,0,0,5.129.009a4.83724,4.83724,0,0,0-5.12,5.12V400.393a4.83724,4.83724,0,0,0,5.12,5.12,4.83724,4.83724,0,0,0,5.12-5.12V311.817H99.337c29.184,30.72,69.632,49.664,115.2,49.664,87.552,0,158.72-71.168,158.72-158.72C373.769,115.209,302.089,44.041,214.537,44.041ZM10.249,301.57693V103.945H90.633a158.87764,158.87764,0,0,0-34.816,98.816,155.88854,155.88854,0,0,0,34.816,98.816Zm204.288,49.664c-81.92,0-148.48-66.56-148.48-148.48s66.56-148.48,148.48-148.48,148.48,66.56,148.48,148.48-66.56,148.48-148.48,148.48Z" transform="translate(-0.00005 -0.00005)"/>
      <g>
        <path d="M122.98649,250.78532l5.395-3.835-1.56005,12.28613H120.7111l.13037-12.28613h39.19628l.06494,12.28613h-6.04492l-1.56006-12.28613,5.33008,3.835Zm19.0459,33.73632,10.0752.97558v3.835H128.77165v-3.835l9.81543-.97558Zm-8.06054-17.41992c0-6.69532,0-13.45606-.19483-20.15137h13.26026c-.19483,6.56541-.19483,13.32617-.19483,20.15137v2.01464c0,6.76075,0,13.52051.19483,20.21582H133.777c.19483-6.56543.19483-13.32519.19483-20.15039Z" transform="translate(-0.00005 -0.00005)"/>
        <path d="M168.09685,275.68179v-4.0957c0-3.5752-.06494-4.61426-.19531-7.21484l-3.50977-.585v-2.665l14.36523-4.48536,1.16993.71485.5205,7.93066v10.40039c0,4.03028.06494,10.72559.19483,13.65039H167.90154C168.03191,286.40738,168.09685,279.71207,168.09685,275.68179Zm-3.18506,10.335,5.8501-1.2998h8.97021l5.85008,1.2998v3.31543H164.91177Zm9.88037-18.85058h5.33008l-.585,2.27539c.77979-8.71,5.5249-12.80566,9.42481-12.80566,3.18554,0,5.59082,1.82031,6.04588,5.78515-.19531,3.50977-2.34082,5.52539-4.94043,5.52539-2.145,0-3.77-1.10547-5.46-3.57519l-1.95019-2.86035,2.40478,1.56054a16.95093,16.95093,0,0,0-4.61474,8.51465l-5.65528-.64941Z" transform="translate(-0.00005 -0.00005)"/>
        <path d="M212.68668,270.80679c2.665-.71582,7.47461-1.95019,10.46484-2.73047v2.86036a59.4667,59.4667,0,0,0-8.38477,2.59961,7.10112,7.10112,0,0,0-4.22558,6.43554c0,3.18555,1.49512,4.74512,3.37988,4.74512a5.25794,5.25794,0,0,0,3.05567-1.36523l3.12011-2.33985.585.78027-3.05567,3.37989c-2.85937,3.12011-4.80957,5.20019-9.81542,5.20019-5.13477,0-8.4502-3.05468-8.4502-8.38574C199.3605,276.9816,202.1564,273.60172,212.68668,270.80679Zm3.96484,13.45508V267.42593c0-5.52441-.84473-7.28027-4.94043-7.28027a27.44467,27.44467,0,0,0-6.1748.8457l5.20019-2.73047v4.09571c0,5.26465-2.53516,7.28027-5.33008,7.28027-2.53515,0-4.29-1.1709-4.94043-3.51074,0-5.58984,5.39551-9.49024,15.86035-9.49024,8.97071,0,12.28614,3.70508,12.28614,12.61036V284.132a1.02384,1.02384,0,0,0,1.10449,1.10547c.52051,0,.97559-.26074,1.75488-1.43067l1.88574,1.04c-1.56054,3.96485-4.0957,5.52539-8.71093,5.52539-4.7451,0-7.21485-2.20993-7.9951-6.11032Z" transform="translate(-0.00005 -0.00005)"/>
        <path d="M242.19547,289.33218c.12988-2.9248.19531-9.62011.19531-13.65039v-3.12011c0-3.5752-.06543-5.58985-.19531-8.19043l-3.50977-.585v-2.665l15.08008-4.48536,1.16992.71485-.19434,9.68555v8.6455c0,4.03028.06446,10.72559.19434,13.65039Zm15.34082-3.31543v3.31543H239.40054v-3.31543l5.58985-1.2998h6.30566Zm-15.08106-38.80664a5.994,5.994,0,1,1,6.38361,5.57724q-.20129.01358-.40314.01358a5.68443,5.68443,0,0,1-5.97336-5.38q-.00549-.10533-.00709-.21082Z" transform="translate(-0.00005 -0.00005)"/>
        <path d="M267.74039,289.33218c.12988-2.9248.19433-9.62011.19433-13.65039v-4.03027c0-3.5752-.06445-4.67969-.19433-7.28027l-3.51075-.585v-2.665l14.36622-4.48536,1.16992.71485.51953,7.08594v11.24511c0,4.03028.06543,10.72559.19531,13.65039Zm15.08008-3.31543v3.31543H264.88v-3.31543l5.58985-1.2998H276.84Zm16.96582-18.52539v8.19043c0,4.16016.06543,10.72559.19531,13.65039H287.24039c.13086-2.9248.19531-9.49023.19531-13.65039v-7.3457c0-3.44434-.84473-4.74512-2.92481-4.74512-1.95019,0-5.26562,1.88575-7.41015,4.875h-2.53516v-4.67968h4.80957l-2.33984,2.08007c5.13574-7.54,8.25586-9.23047,12.93555-9.23047C295.62613,256.63589,299.78629,260.4064,299.78629,267.49136ZM296.27652,284.717l6.30469,1.29981v3.31542H284.57535v-3.31542l5.39551-1.29981Z" transform="translate(-0.00005 -0.00005)"/>
      </g>
      <path class="cls-2" d="M214.576,54.28094c-81.98129,0-148.44093,67.15326-148.44212,149.9887,0,82.83543,66.46085,149.98747,148.44153,149.98747,81.9819,0,148.44156-67.152,148.44156-149.98747S296.5585,54.28094,214.576,54.28094Zm-.88241,280.73371A128.316,128.316,0,1,1,342.009,206.69807v.00055a128.31656,128.31656,0,0,1-128.3154,128.316Z" transform="translate(-0.00005 -0.00005)"/>
      <path class="cls-3" d="M78.64423,202.7616c.00119-79.31385,62.69226-143.98839,141.26458-147.28417C135.63174,51.94489,66.05873,119.19244,66.057,202.7616c0,83.54184,69.54272,150.81494,153.85126,147.283C141.33649,346.75,78.64423,282.07544,78.64423,202.7616Z" transform="translate(-0.00005 -0.00005)"/>
      <polygon class="cls-4" points="236.326 215.169 192.825 215.169 185.536 224.934 243.615 224.934 236.326 215.169"/>
      <polygon class="cls-5" points="191.058 217.536 185.536 224.934 243.615 224.934 238.093 217.536 191.058 217.536"/>
      <g>
        <path class="cls-6" d="M245.73862,232.52194a5.54843,5.54843,0,0,0,9.136-6.2987L239.60373,204.0721h-13.4782Z" transform="translate(-0.00005 -0.00005)"/>
        <path class="cls-6" d="M173.9192,233.94035a5.5471,5.5471,0,0,0,7.71583-1.41653l.00129-.00189,19.6131-28.44985h-13.4782l-15.27085,22.15114a5.548,5.548,0,0,0,1.41835,7.7168Z" transform="translate(-0.00005 -0.00005)"/>
      </g>
      <g>
        <path class="cls-7" d="M234.41133,204.0721h-8.28581l19.61267,28.44984a5.542,5.542,0,0,0,8.708.53762C254.08614,232.65291,255.33852,234.42825,234.41133,204.0721Z" transform="translate(-0.00005 -0.00005)"/>
        <path class="cls-7" d="M180.78574,226.22324l15.27085-22.15114h-8.28581l-15.27086,22.15114a5.54627,5.54627,0,0,0,8.71157,6.83322A5.5465,5.5465,0,0,1,180.78574,226.22324Z" transform="translate(-0.00005 -0.00005)"/>
      </g>
      <path class="cls-8" d="M250.30682,199.18958a5.32663,5.32663,0,0,1-5.32646,5.32646H182.39458a5.32663,5.32663,0,0,1-5.32646-5.32646v-75.458a5.32663,5.32663,0,0,1,5.32646-5.32647h62.58577a5.32663,5.32663,0,0,1,5.32646,5.32647v75.458Z" transform="translate(-0.00005 -0.00005)"/>
      <path class="cls-9" d="M185.49644,199.18958v-75.458a5.32636,5.32636,0,0,1,5.32625-5.32647h-8.4281a5.32663,5.32663,0,0,0-5.32646,5.32647v75.458a5.32663,5.32663,0,0,0,5.32646,5.32646h8.42832A5.32664,5.32664,0,0,1,185.49644,199.18958Z" transform="translate(-0.00005 -0.00005)"/>
      <g>
        <path class="cls-10" d="M233.88348,129.94594h-40.392a5.32664,5.32664,0,0,0-5.32648,5.32648v27.51977a5.32664,5.32664,0,0,0,5.32648,5.32648h40.392a5.32664,5.32664,0,0,0,5.32647-5.32648V135.27242A5.32664,5.32664,0,0,0,233.88348,129.94594Z" transform="translate(-0.00005 -0.00005)"/>
        <circle class="cls-10" cx="195.48696" cy="185.87203" r="7.32378"/>
        <circle class="cls-10" cx="231.88433" cy="185.87203" r="7.32379"/>
      </g>
      <g>
        <path class="cls-11" d="M199.15089,179.5374a7.32018,7.32018,0,1,0,0,12.67245,7.31595,7.31595,0,0,1,0-12.67245Z" transform="translate(-0.00005 -0.00005)"/>
        <path class="cls-11" d="M235.54828,179.5374a7.32019,7.32019,0,1,0,0,12.67245,7.31593,7.31593,0,0,1,0-12.67245Z" transform="translate(-0.00005 -0.00005)"/>
      </g>
      <path class="cls-12" d="M188.165,156.57784v6.21435a5.32664,5.32664,0,0,0,5.32648,5.32648h40.392a5.32663,5.32663,0,0,0,5.32646-5.32648v-6.21435Z" transform="translate(-0.00005 -0.00005)"/>
      <path class="cls-11" d="M213.68747,156.57784V129.9455h-20.196a5.32664,5.32664,0,0,0-5.32648,5.3265v21.30588Z" transform="translate(-0.00005 -0.00005)"/>
      <path class="cls-13" d="M197.0426,162.79219v-6.21435H188.165v6.21435a5.32664,5.32664,0,0,0,5.32648,5.32648h8.87759a5.32637,5.32637,0,0,1-5.32646-5.32627Z" transform="translate(-0.00005 -0.00005)"/>
      <path class="cls-14" d="M197.0426,135.272a5.32663,5.32663,0,0,1,5.32646-5.32647h-8.87759A5.32664,5.32664,0,0,0,188.165,135.272v21.30588h8.8776Z" transform="translate(-0.00005 -0.00005)"/>
      <path d="M184.83585,185.8734a10.65294,10.65294,0,1,0,10.653-10.65293h0A10.66525,10.66525,0,0,0,184.83585,185.8734Zm14.648,0a3.99463,3.99463,0,1,1-3.99464-3.99462h0a3.99917,3.99917,0,0,1,3.99465,3.99462Z" transform="translate(-0.00005 -0.00005)"/>
      <path d="M231.88617,175.22047a10.65294,10.65294,0,1,0,10.65292,10.653v0A10.66527,10.66527,0,0,0,231.88617,175.22047Zm0,14.64757a3.99463,3.99463,0,1,1,3.99461-3.99464h0a3.99918,3.99918,0,0,1-3.99461,3.99459Z" transform="translate(-0.00005 -0.00005)"/>
      <path d="M242.53909,135.272a8.66552,8.66552,0,0,0-8.65562-8.65561h-40.392a8.66552,8.66552,0,0,0-8.65562,8.65561v27.51979a8.66577,8.66577,0,0,0,8.65562,8.65561h40.392a8.66581,8.66581,0,0,0,8.65562-8.65561Zm-51.04495,0a1.99972,1.99972,0,0,1,1.99732-1.99731h16.86683v19.974H191.4937V135.272Zm44.38709,27.52024a1.99972,1.99972,0,0,1-1.99732,1.99731h-40.392a1.99971,1.99971,0,0,1-1.99731-1.99731V159.907h44.38708v2.88519Zm0-9.54308H217.01662v-19.974h16.86686a1.99973,1.99973,0,0,1,1.99732,1.99732v17.97671Z" transform="translate(-0.00005 -0.00005)"/>
      <path d="M211.93967,182.54425a3.32915,3.32915,0,0,0,0,6.6583h3.49563a3.32915,3.32915,0,0,0,0-6.6583Z" transform="translate(-0.00005 -0.00005)"/>
      <path d="M168.337,231.4214a8.88037,8.88037,0,0,0,16.04022,3.43349l4.23834-6.14865h50.14374l4.23834,6.14865a8.87748,8.87748,0,1,0,14.61783-10.07758l-11.70863-16.98449a8.66662,8.66662,0,0,0,7.72911-8.60413V170.11508a3.32915,3.32915,0,1,0-6.6583-.00838v29.082a1.99971,1.99971,0,0,1-1.99731,1.99731H182.39459a1.99971,1.99971,0,0,1-1.99731-1.99731v-75.458a1.99972,1.99972,0,0,1,1.99731-1.99731h62.58577a1.99974,1.99974,0,0,1,1.99732,1.99731v30.849a3.32915,3.32915,0,0,0,6.65829,0v-30.849a8.66553,8.66553,0,0,0-8.65562-8.65562H182.39458a8.66552,8.66552,0,0,0-8.65561,8.65562v75.458a8.66694,8.66694,0,0,0,7.72909,8.60413l-11.70863,16.98449A8.81939,8.81939,0,0,0,168.337,231.4214Zm69.51843-23.57664,14.27864,20.71185a2.2196,2.2196,0,0,1-3.655,2.51941l-5.23013-7.587-10.78524-15.64422Zm-34.85777,0h21.38l3.05968,4.43857H199.938Zm29.02964,11.09688,2.142,3.10717H193.20557c1.41618-2.05415.9283-1.346,2.142-3.10717ZM189.5199,207.84476h5.39129c-3.71672,5.39084-6.36531,9.23275-16.0158,23.2317a2.22159,2.22159,0,0,1-4.00972-.859c-.22951-1.24532-.86789.11453,14.63424-22.37271Z" transform="translate(-0.00005 -0.00005)"/>
    </g>
  </g>
</svg>
