<svg id="Capa_1" data-name="Capa 1" xmlns="http://www.w3.org/2000/svg" viewBox="0 0 373.25072 405.504">
  <defs>
    <style>
      .cls-1 {
        fill: #fd151b;
      }

      .cls-2 {
        fill: #0a0a09;
      }

      .cls-3 {
        fill: #fffc31;
      }
    </style>
  </defs>
  <title>train-stationSpainStag</title>
  <circle class="cls-1" cx="214.528" cy="202.752" r="148.48"/>
  <path class="cls-2" d="M302.335,119.808c-12.8-13.824-36.864-20.992-71.68-20.992s-58.88,7.168-71.68,20.992c-9.728,10.24-8.704,20.48-8.704,20.48v122.88a17.046,17.046,0,0,0,16.896,16.896h8.192l-12.288,15.36c-1.536,2.048-1.536,5.632,1.024,7.168a7.27726,7.27726,0,0,0,3.072,1.024,4.65656,4.65656,0,0,0,4.096-2.048l1.536-2.048H288.511l1.536,2.048a4.65655,4.65655,0,0,0,4.096,2.048,7.27727,7.27727,0,0,0,3.072-1.024,5.506,5.506,0,0,0,1.024-7.168l-12.288-15.36h3.584c3.072,0,10.24-.512,15.872-5.632a20.111,20.111,0,0,0,5.632-14.336V140.8C311.551,140.288,312.063,130.048,302.335,119.808ZM180.991,289.792l7.68-9.728h84.48l7.68,9.728Zm117.76-22.528c-3.072,2.56-7.68,3.072-9.728,3.072H167.167a6.77745,6.77745,0,0,1-6.656-6.656V217.6H300.799v42.496h.512A11.09908,11.09908,0,0,1,298.751,267.264Zm2.048-59.904H160.511V157.184H300.799Zm.512-60.416h-140.8v-7.168c0-.512-.512-6.656,6.144-13.824,7.68-7.68,24.576-17.408,64-17.408s56.32,9.216,64,17.408c6.656,7.168,6.656,13.824,6.656,14.336Z" transform="translate(-16.127)"/>
  <circle class="cls-3" cx="176.128" cy="242.688" r="9.216"/>
  <circle class="cls-3" cx="253.43998" cy="242.688" r="9.216"/>
  <path class="cls-3" d="M242.943,124.928H218.879a6.144,6.144,0,1,0,0,12.288h24.064a6.22575,6.22575,0,0,0,6.144-6.144A5.91544,5.91544,0,0,0,242.943,124.928Z" transform="translate(-16.127)"/>
  <path d="M230.655,44.032c-45.568,0-86.016,18.944-115.2,49.664H26.367V5.12A4.83724,4.83724,0,0,0,21.247,0a4.83724,4.83724,0,0,0-5.12,5.12V400.384a4.83724,4.83724,0,0,0,5.12,5.12,4.83724,4.83724,0,0,0,5.12-5.12V311.808h89.088c29.184,30.72,69.632,49.664,115.2,49.664,87.552,0,158.72-71.168,158.72-158.72C389.887,115.2,318.207,44.032,230.655,44.032ZM26.367,301.568V103.936h80.384a158.87762,158.87762,0,0,0-34.816,98.816,155.88845,155.88845,0,0,0,34.816,98.816Zm204.288,49.664c-81.92,0-148.48-66.56-148.48-148.48s66.56-148.48,148.48-148.48,148.48,66.56,148.48,148.48S312.575,351.232,230.655,351.232Z" transform="translate(-16.127)"/>
  <rect class="cls-3" x="144.384" y="157.18401" width="140.28801" height="50.17599"/>
</svg>
