<svg id="Capa_1" data-name="Capa 1" xmlns="http://www.w3.org/2000/svg" viewBox="0 0 373.25968 405.52189">
  <defs>
    <style>
      .cls-1 {
        fill: #ff6;
      }

      .cls-2 {
        fill: #606060;
      }

      .cls-3 {
        fill: #036;
      }
    </style>
  </defs>
  <title>train-s</title>
  <circle class="cls-1" cx="214.53696" cy="202.76094" r="148.48"/>
  <path class="cls-2" d="M214.528,44.032c-45.568,0-86.016,18.944-115.2,49.664H10.24V5.12A4.83724,4.83724,0,0,0,5.12,0,4.83724,4.83724,0,0,0,0,5.12V400.384a4.83724,4.83724,0,0,0,5.12,5.12,4.83724,4.83724,0,0,0,5.12-5.12V311.808H99.328c29.184,30.72,69.632,49.664,115.2,49.664,87.552,0,158.72-71.168,158.72-158.72C373.76,115.2,302.08,44.032,214.528,44.032ZM10.24,301.568V103.936H90.624a158.87763,158.87763,0,0,0-34.816,98.816,155.88845,155.88845,0,0,0,34.816,98.816Zm204.288,49.664c-81.92,0-148.48-66.56-148.48-148.48s66.56-148.48,148.48-148.48,148.48,66.56,148.48,148.48S296.448,351.232,214.528,351.232Z" transform="translate(0.00895 0.00895)"/>
  <path class="cls-2" d="M216.81959,108.219H212.2068c-22.88368,0-41.46191,1.29668-41.46191,24.19212V168.132c0,23.7039,1.80894,34.29835,6.08413,38.863l-1.97188,34.71432,6.75929.38016L183.16,214.9189h1.09736l-1.98978,26.97186h64.79736l-1.272-26.97187h.11479l1.55594,27.17059,6.73525-.38018-2.05647-36.32392c4.10609-5.27625,6.1687-15.967,6.1687-37.24661V132.41164C258.31174,109.515,239.73968,108.219,216.81959,108.219Zm-16.41321,76.63419h-18.1382v-8.36335h18.1382Zm46.38824,0H228.63234v-8.36335H246.7946Zm.2771-20.17611H180.29631V126.83916h66.77542Z" transform="translate(0.00895 0.00895)"/>
  <path class="cls-2" d="M202.476,95.299h-7.22v8.637h39.286V95.299h-6.751V63.292h14.118V59.13H187.147v4.162h15.329Zm1.045-32.007h23.214V95.299H203.521Z" transform="translate(0.00895 0.00895)"/>
  <g>
    <path class="cls-3" d="M119.57129,258.24023l5.97656-4.249-1.72851,13.60938h-6.76856l.144-13.60938h43.41993l.07177,13.60938h-6.69629l-1.728-13.60938,5.90429,4.249Zm21.09766,37.3711,11.16113,1.08008v4.248H125.98v-4.248l10.87256-1.08008Zm-8.92872-19.29785c0-7.417,0-14.90528-.21582-22.32227h14.689c-.21582,7.27246-.21582,14.76172-.21582,22.32227v2.23242c0,7.48828,0,14.97656.21582,22.39355h-14.689c.21582-7.27246.21582-14.76172.21582-22.32226Z" transform="translate(0.00895 0.00895)"/>
    <path class="cls-3" d="M169.53955,285.81836v-4.53613c0-3.96094-.07226-5.11328-.21631-7.99317l-3.88818-.64844v-2.95214l15.91357-4.96778,1.2959.792.57617,8.78418v11.52148c0,4.46387.07178,11.88086.21582,15.12109H169.32324C169.46729,297.69922,169.53955,290.28223,169.53955,285.81836Zm-3.52832,11.44922,6.48047-1.44043h9.937l6.48047,1.44043v3.67187H166.01123Zm10.94482-20.88184h5.90479l-.64844,2.51953c.86426-9.64843,6.12061-14.18457,10.44092-14.18457,3.52832,0,6.19336,2.01563,6.69727,6.40821-.2168,3.88867-2.59278,6.12011-5.47266,6.12011-2.376,0-4.17676-1.22363-6.04883-3.96l-2.16015-3.168,2.66406,1.72754a18.78212,18.78212,0,0,0-5.11231,9.4336l-6.26465-.72071Z" transform="translate(0.00895 0.00895)"/>
    <path class="cls-3" d="M218.93164,280.418c2.95313-.792,8.28125-2.16016,11.59375-3.02442v3.168a65.87216,65.87216,0,0,0-9.28906,2.88086,7.863,7.863,0,0,0-4.68067,7.12793c0,3.52832,1.65625,5.25684,3.74414,5.25684a5.83149,5.83149,0,0,0,3.38477-1.5127l3.45605-2.59179.64844.86425-3.38476,3.74414c-3.168,3.45606-5.32813,5.76075-10.87305,5.76075-5.68848,0-9.36035-3.38477-9.36035-9.28907C204.1709,287.25781,207.2666,283.51367,218.93164,280.418Zm4.39258,14.90527V276.67383c0-6.1211-.93555-8.06543-5.47266-8.06543a30.39125,30.39125,0,0,0-6.84082.93652l5.76074-3.02441v4.53613c0,5.833-2.80859,8.06445-5.90429,8.06445-2.8086,0-4.75293-1.29589-5.47266-3.88769,0-6.19238,5.97656-10.5127,17.57031-10.5127,9.93653,0,13.6084,4.10352,13.6084,13.96875v16.48926a1.135,1.135,0,0,0,1.22461,1.22461c.57617,0,1.08008-.28809,1.94434-1.584l2.08789,1.15136c-1.72852,4.39258-4.53613,6.1211-9.64844,6.1211C226.9248,302.0918,224.18848,299.64355,223.32422,295.32324Z" transform="translate(0.00895 0.00895)"/>
    <path class="cls-3" d="M251.61816,300.93945c.14454-3.24023.21582-10.65722.21582-15.12109V282.3623c0-3.96093-.07128-6.19335-.21582-9.07324l-3.88867-.64844v-2.95214l16.70606-4.96778,1.2959.792-.21583,10.72851v9.57715c0,4.46387.07227,11.88086.21583,15.12109Zm16.99317-3.67187v3.67187H248.52246v-3.67187l6.19238-1.44043h6.98438ZM251.90625,254.2793c0-3.60059,2.95215-6.19239,6.625-6.19239,3.67187,0,6.624,2.5918,6.624,6.19239s-2.95215,6.19238-6.624,6.19238C254.8584,260.47168,251.90625,257.87988,251.90625,254.2793Z" transform="translate(0.00895 0.00895)"/>
    <path class="cls-3" d="M279.91406,300.93945c.14453-3.24023.21582-10.65722.21582-15.12109v-4.46484c0-3.96-.07129-5.18457-.21582-8.06446l-3.88769-.64844v-2.95214l15.91308-4.96778,1.2959.792.57617,7.84863v12.457c0,4.46387.07227,11.88086.21582,15.12109Zm16.70606-3.67187v3.67187h-19.874v-3.67187l6.19239-1.44043h7.05664Zm18.793-20.52246v9.07324c0,4.6084.07226,11.88086.21582,15.12109H301.5166c.14356-3.24023.21582-10.51269.21582-15.12109v-8.13672c0-3.81641-.93652-5.25684-3.24023-5.25684-2.16016,0-5.833,2.0879-8.209,5.4004h-2.80859v-5.18458h5.3291l-2.59277,2.30469c5.68847-8.35254,9.14453-10.22461,14.3291-10.22461C310.80469,264.7207,315.41309,268.89648,315.41309,276.74512Zm-3.8877,19.082,6.98438,1.44043v3.67187H298.56348v-3.67187l5.97656-1.44043Z" transform="translate(0.00895 0.00895)"/>
  </g>
</svg>
