<svg id="Layer_1" data-name="Layer 1" xmlns="http://www.w3.org/2000/svg" viewBox="0 0 370.00072 488.925">
  <defs>
    <style>
      .cls-1 {
        fill: #5ed1c7;
      }

      .cls-2 {
        fill: #fcf8f2;
      }

      .cls-3 {
        fill: #2ba494;
      }

      .cls-4 {
        fill: #606060;
      }
    </style>
  </defs>
  <title>train</title>
  <path class="cls-1" d="M365.2,150.225c-35.8-200.3-324.5-200.3-360.3,0a310.5301,310.5301,0,0,0-4.9,54.9c0,126.7,76.1,235.7,185,283.8,109-48.1,185-157,185-283.8A311.3717,311.3717,0,0,0,365.2,150.225Z" transform="translate(0.00042 0)"/>
  <path class="cls-2" d="M333.9,183.825a144.854,144.854,0,0,1-128.3,143.9,151.14535,151.14535,0,0,1-16.6.9,144.9,144.9,0,0,1,0-289.8,130.93925,130.93925,0,0,1,16.6,1A145.0262,145.0262,0,0,1,333.9,183.825Z" transform="translate(0.00042 0)"/>
  <path class="cls-3" d="M202.8,29.525a154.73781,154.73781,0,0,0-36.8.2c-16.5,2-21.2-22-5.1-26.4A89.67472,89.67472,0,0,1,185,.125c-81.1-.1-162.3,50-180.2,150.1a310.53666,310.53666,0,0,0-4.8,54.9c0,126.7,76.1,235.7,185,283.8-34.2-22.3-63.6-57.6-85.3-101.6-14.5-29.3,12.6-62.4,44.2-53.7a154.99651,154.99651,0,0,0,41.1,5.5,151.72131,151.72131,0,0,0,17.8-1,155.32633,155.32633,0,0,0,0-308.6Zm-2.4,287.8a131.26472,131.26472,0,0,1-15.4.9,134.60778,134.60778,0,0,1-124.5-83.7h0A134.42434,134.42434,0,0,1,185,49.425a132.545,132.545,0,0,1,15.4.9,134.38341,134.38341,0,0,1,0,267Z" transform="translate(0.00042 0)"/>
  <path class="cls-4" d="M191.08331,102.37839h-6.60357c-32.75986,0-59.35613,1.85631-59.35613,34.633v51.13744c0,33.93407,2.58965,49.10089,8.70993,55.63556l-2.8229,49.69641,9.67649.54422,2.20974-38.8969h1.57095l-2.84853,38.61242H234.382l-1.821-38.61242h.16434l2.22745,38.8969,9.64206-.54425-2.944-52.00067c5.8782-7.55338,8.831-22.858,8.831-53.32157V137.01221C250.48273,104.23382,223.89529,102.37839,191.08331,102.37839ZM167.58647,212.0865H141.62015V200.11368h25.96632Zm66.40856,0h-26.0008V200.11368H233.995Zm.39669-28.88376H138.79726v-54.168h95.59446Z" transform="translate(0.00042 0)"/>
  <path class="cls-4" d="M176.948,91.68051h-7.22v8.637h39.286v-8.637h-6.751v-32.007h14.118v-4.162H161.619v4.162h15.329Zm1.045-32.007h23.214v32.007H177.993Z" transform="translate(0.00042 0)"/>
</svg>
