<svg id="Capa_1" data-name="Capa 1" xmlns="http://www.w3.org/2000/svg" viewBox="0 0 300 512">
  <defs>
    <style>
      .cls-1 {
        fill: #ff6;
      }

      .cls-2 {
        fill: #036;
      }
    </style>
  </defs>
  <title>trainStationNew</title>
  <rect class="cls-1" x="20" y="20" width="266.70315" height="325.316" rx="37.35782"/>
  <path d="M239.069,408.93A9.99124,9.99124,0,1,0,242,416,10.06728,10.06728,0,0,0,239.069,408.93Z" transform="translate(-106)"/>
  <path d="M232,445a10.00109,10.00109,0,0,0-10,10v47a10,10,0,0,0,20,0V455A10.00109,10.00109,0,0,0,232,445Z" transform="translate(-106)"/>
  <path d="M396,153.726a10.00109,10.00109,0,0,0,10-10V58A58.06609,58.06609,0,0,0,348,0H164a58.06609,58.06609,0,0,0-58,58V302a58.06609,58.06609,0,0,0,58,58h58v17a10,10,0,0,0,20,0V360h28V502a10,10,0,0,0,20,0V360h58a58.0661,58.0661,0,0,0,58-58V218a10,10,0,0,0-20,0v84a38.04339,38.04339,0,0,1-38,38H164a38.04339,38.04339,0,0,1-38-38V58a38.04339,38.04339,0,0,1,38-38H348a38.04339,38.04339,0,0,1,38,38v85.726A10.00109,10.00109,0,0,0,396,153.726Z" transform="translate(-106)"/>
  <path d="M403.069,176A9.99124,9.99124,0,1,0,406,183.069,10.07253,10.07253,0,0,0,403.069,176Z" transform="translate(-106)"/>
  <path d="M258.04162,133.4348H253.932c-20.38761,0-36.9394,1.15525-36.9394,21.55333v31.82462c0,21.11835,1.61163,30.5572,5.4205,34.624l-1.7568,30.92781,6.022.33869,1.3752-24.2069h.97766l-1.77274,24.02985h57.72948l-1.13327-24.02986h.10228l1.38621,24.20691,6.0006-.33871-1.83216-32.36184c3.65821-4.70073,5.49584-14.22533,5.49584-33.18387V154.98864C295.008,134.5895,278.46167,133.4348,258.04162,133.4348ZM243.41872,201.71H227.259v-7.4511h16.15976Zm41.32836,0h-16.1812v-7.4511h16.18119Zm.24687-17.97537H225.50218V150.024H284.994Z" transform="translate(-106)"/>
  <path d="M243.19608,125.62107h-7.22v8.637h39.286v-8.637h-6.751v-32.007h14.118v-4.162h-54.762v4.162h15.329Zm1.045-32.007h23.214v32.007h-23.214Z" transform="translate(-106)"/>
  <g>
    <path class="cls-2" d="M140.73975,38.27246l5.64306-4.01172L144.751,47.1123h-6.39112l.13623-12.85156h40.99952l.06787,12.85156h-6.32325L171.6084,34.26074l5.57568,4.01172Zm19.92187,35.28906,10.53906,1.01953v4.01172H146.791V74.58105l10.26709-1.01953Zm-8.43115-18.22265c0-7.00293,0-14.07422-.2041-21.07813H165.897c-.20361,6.86817-.20361,13.93946-.20361,21.07813v2.1084c0,7.07128,0,14.14257.20361,21.1455h-13.8706c.2041-6.86718.2041-13.93847.2041-21.07812Z" transform="translate(-106)"/>
    <path class="cls-2" d="M187.79541,38.27246V34.26074h11.49072V39.293H198.0625Zm12.71484,35.28906,10.26709,1.01953v4.01172H187.79541V74.58105l10.26709-1.01953Zm-7.95556-18.22265c0-7.00293,0-14.07422-.20362-21.07813h13.59864c-.2041,6.86817-.2041,13.93946-.2041,21.07813v2.1084c0,7.07128,0,14.14257.2041,21.1455H192.35107c.20362-6.86718.20362-13.93847.20362-21.07812Zm6.86767-1.15528h7.81885c6.52734,0,8.02344-3.94433,8.02344-7.88769,0-5.3711-2.92383-7.81934-7.88721-7.81934h-8.09131V34.26074h11.89893c10.811,0,16.6582,4.14844,16.6582,11.01563,0,4.96289-3.60351,10.335-16.8623,10.94629v-.74707c12.98681.27148,15.5708,4.2832,16.52246,12.03418L228.72754,77.709,221.792,73.35742l11.42285,1.22363v4.01172a29.61063,29.61063,0,0,1-8.43115,1.08789c-6.39111,0-10.40283-1.90429-11.01514-8.02343l-.67968-6.66309c-.40821-4.21582-1.76758-6.73144-5.23535-6.73144h-8.43116Z" transform="translate(-106)"/>
    <path class="cls-2" d="M239.544,74.58105l7.07128-1.01953H247.771l6.05127,1.01953v4.01172H239.544Zm18.96972-40.32031h8.15918l15.16211,44.332H268.169L257.35742,43.71191l2.92383-4.75879L247.63477,78.59277H243.2832Zm-7.07129,27.80957h18.3584L271.5,66.35449H250.28662Zm10.67481,12.71485,7.34375-1.01954h5.77929l8.83887,1.01954v3.80761H262.11719Z" transform="translate(-106)"/>
    <path class="cls-2" d="M291.96973,38.27246V34.26074h23.0498v4.01172L304.48145,39.293H302.2373Zm12.51172,35.28906,10.53808,1.01953v4.01172h-23.0498V74.58105l10.26757-1.01953Zm-7.752-18.22265c0-7.00293,0-14.07422-.2041-21.07813h13.87109c-.2041,6.86817-.2041,13.93946-.2041,21.07813v2.1084c0,7.07128,0,14.14257.2041,21.1455H296.52539c.2041-6.86718.2041-13.93847.2041-21.07812Z" transform="translate(-106)"/>
    <path class="cls-2" d="M326.78613,36.77734l3.80762,2.03907-7.07129-.47559V34.26074h17.33789l22.91406,31.41309V78.59277h-7.13964Zm-3.26367,37.80371,7.27539-1.01953h2.17578l9.11133,1.01953v4.01172h-18.5625Zm5.7793-40.32031,4.75976,4.08008v40.252h-4.75976Zm21.68945,0h18.5625v4.01172L362.61816,39.293h-2.10742l-9.51953-1.02051Zm8.02344,0h4.75976v44.332L359.01465,73.833Z" transform="translate(-106)"/>
  </g>
  <g>
    <path class="cls-2" d="M153.70117,308.96094c0-2.64063-1.15478-3.84961-3.90429-5.16992l-2.41993-1.1543c-6.81884-3.24512-10.50341-6.54492-10.50341-12.81445,0-6.709,5.33447-10.77735,14.188-10.77735a21.52664,21.52664,0,0,1,10.94336,2.749l-.49463,7.91894H155.791l-1.26465-8.30371,4.78418,1.48535v2.749c-3.02442-1.9248-5.11426-3.13476-7.91895-3.13476a4.70743,4.70743,0,0,0-4.94922,4.50976c0,2.69434,1.53955,4.01465,4.50928,5.44434l2.74951,1.32031c6.9292,3.29883,9.84375,6.26856,9.84375,11.98828,0,6.48829-4.78418,11.32813-14.90283,11.32813-4.12451,0-9.019-.76953-12.42871-2.85938l.33008-8.35937h5.8291l1.43017,9.07422-4.50976-1.26563v-2.63867c3.51953,1.64844,5.93945,2.584,9.40381,2.584C152.10645,313.63477,153.70117,311.43555,153.70117,308.96094Z" transform="translate(-106)"/>
    <path class="cls-2" d="M170.86328,283.38867l4.56445-3.24414-1.31982,10.39356h-5.16943l.11035-10.39356h33.16064l.05469,10.39356H197.1499l-1.31982-10.39356,4.50928,3.24414Zm16.11328,28.541,8.52344.82519V316H175.75781v-3.24512l8.30371-.82519Zm-6.81933-14.73828c0-5.66407,0-11.38282-.165-17.04688h11.21875c-.165,5.55469-.165,11.27344-.165,17.04688v1.70507c0,5.71973,0,11.43946.165,17.10352H179.99219c.165-5.55469.165-11.27344.165-17.04883Z" transform="translate(-106)"/>
    <path class="cls-2" d="M203.53418,312.75488l5.71924-.82519h.93506l4.89453.82519V316H203.53418Zm15.34326-32.61035h6.59912L237.73975,316H226.686l-8.74366-28.21191,2.36475-3.84864L210.07861,316h-3.51953Zm-5.71924,22.49219h14.84766l1.375,3.46484H212.22314Zm8.63379,10.2832,5.939-.82422h4.67431l7.14942.82422V316H221.792Z" transform="translate(-106)"/>
    <path class="cls-2" d="M243.02441,283.38867l4.56446-3.24414-1.31934,10.39356h-5.16992l.11035-10.39356h33.16016l.05566,10.39356h-5.11426l-1.32031-10.39356,4.50977,3.24414Zm16.11329,28.541,8.52343.82519V316H247.919v-3.24512l8.30371-.82519Zm-6.81934-14.73828c0-5.66407,0-11.38282-.165-17.04688h11.21875c-.165,5.55469-.165,11.27344-.165,17.04688v1.70507c0,5.71973,0,11.43946.165,17.10352H252.15332c.165-5.55469.165-11.27344.165-17.04883Z" transform="translate(-106)"/>
    <path class="cls-2" d="M281.085,283.38867v-3.24414h18.64258v3.24414l-8.52442.8252h-1.81445Zm10.11816,28.541,8.52442.82519V316H281.085v-3.24512l8.30371-.82519Zm-6.26855-14.73828c0-5.66407,0-11.38282-.165-17.04688H295.9873c-.165,5.55469-.165,11.27344-.165,17.04688v1.70507c0,5.71973,0,11.43946.165,17.10352H284.76953c.165-5.55469.165-11.27344.165-17.04883Z" transform="translate(-106)"/>
    <path class="cls-2" d="M341.68945,298.07227c0,12.92285-8.41406,19.02734-17.708,19.02734-9.293,0-17.707-6.10449-17.707-19.02734,0-12.92383,8.46875-19.02735,17.707-19.02735C333.2207,279.04492,341.68945,285.14844,341.68945,298.07227Zm-17.708,15.67187c4.6748,0,6.43457-6.21289,6.43457-15.67187,0-9.4043-1.75977-15.72852-6.43457-15.72852-4.67383,0-6.4336,6.32422-6.4336,15.72852C317.54785,307.53125,319.30762,313.74414,323.98145,313.74414Z" transform="translate(-106)"/>
    <path class="cls-2" d="M350.10938,282.17969l3.0791,1.64843-5.71973-.38476v-3.29883h14.02344l18.5332,25.40625V316H374.251Zm-2.64063,30.57519,5.88477-.82519h1.75976l7.36914.82519V316H347.46875Zm4.6748-32.61035,3.84961,3.29883V316h-3.84961Zm17.543,0h15.0127v3.24414l-5.60938.8252h-1.70507l-7.69825-.8252Zm6.48926,0h3.84961V316l-3.84961-3.84961Z" transform="translate(-106)"/>
  </g>
</svg>
