<?xml version="1.0" encoding="iso-8859-1"?>
<!-- Generator: Adobe Illustrator 19.0.0, SVG Export Plug-In . SVG Version: 6.00 Build 0)  -->
<svg version="1.1" id="Capa_1" xmlns="http://www.w3.org/2000/svg" xmlns:xlink="http://www.w3.org/1999/xlink" x="0px" y="0px"
	 viewBox="0 0 512.001 512.001" style="enable-background:new 0 0 512.001 512.001;" xml:space="preserve">
<polygon style="fill:#93603E;" points="306.993,342.235 209.006,342.235 192.587,364.231 323.413,364.231 "/>
<polygon style="fill:#7F4C2F;" points="205.026,347.567 192.587,364.231 323.413,364.231 310.974,347.567 "/>
<g>
	<path style="fill:#C16B3D;" d="M328.196,381.323c2.425,3.517,6.33,5.405,10.301,5.405c9.975,0,16.016-11.27,10.278-19.593
		l-34.398-49.896h-30.36L328.196,381.323z"/>
	<path style="fill:#C16B3D;" d="M166.421,384.518c5.683,3.919,13.466,2.489,17.383-3.195l44.179-64.084h-30.36l-34.398,49.896
		C159.307,372.818,160.738,380.601,166.421,384.518z"/>
</g>
<g>
	<path style="fill:#AF542C;" d="M302.681,317.239h-18.664l44.178,64.084c4.548,6.596,14.144,7.339,19.615,1.211
		C346.999,381.618,349.82,385.617,302.681,317.239z"/>
	<path style="fill:#AF542C;" d="M181.888,367.135l34.398-49.896h-18.664l-34.398,49.896c-3.918,5.683-2.487,13.466,3.196,17.383
		c5.254,3.623,12.297,2.666,16.427-1.991C179.106,378.326,178.553,371.973,181.888,367.135z"/>
</g>
<path style="fill:#FFA92C;" d="M338.486,306.241c0,6.626-5.372,11.998-11.998,11.998H185.512c-6.626,0-11.998-5.372-11.998-11.998
	V136.27c0-6.626,5.372-11.998,11.998-11.998h140.976c6.626,0,11.998,5.372,11.998,11.998V306.241z"/>
<path style="fill:#F49519;" d="M192.499,306.241V136.27c0-6.626,5.371-11.998,11.998-11.998h-18.985
	c-6.626,0-11.998,5.372-11.998,11.998v169.971c0,6.626,5.372,11.998,11.998,11.998h18.985
	C197.871,318.239,192.499,312.867,192.499,306.241z"/>
<g>
	<path style="fill:#6EDCF9;" d="M301.492,150.268h-90.984c-6.626,0-11.998,5.372-11.998,11.998v61.989
		c0,6.626,5.372,11.998,11.998,11.998h90.984c6.626,0,11.998-5.372,11.998-11.998v-61.989
		C313.49,155.64,308.118,150.268,301.492,150.268z"/>
	<circle style="fill:#6EDCF9;" cx="215.003" cy="276.243" r="16.497"/>
	<circle style="fill:#6EDCF9;" cx="296.989" cy="276.243" r="16.497"/>
</g>
<g>
	<path style="fill:#4AC8DD;" d="M223.256,261.974c-10.989-6.366-24.746,1.599-24.746,14.273c0,12.675,13.757,20.638,24.746,14.272
		C212.259,284.15,212.276,268.333,223.256,261.974z"/>
	<path style="fill:#4AC8DD;" d="M305.242,261.974c-10.989-6.366-24.746,1.599-24.746,14.273c0,12.675,13.757,20.638,24.746,14.272
		C294.245,284.15,294.262,268.333,305.242,261.974z"/>
</g>
<path style="fill:#585A60;" d="M198.51,210.257v13.998c0,6.626,5.372,11.998,11.998,11.998h90.984
	c6.626,0,11.998-5.372,11.998-11.998v-13.998H198.51z"/>
<path style="fill:#4AC8DD;" d="M256,210.257v-59.99h-45.492c-6.626,0-11.998,5.372-11.998,11.998v47.992H256z"/>
<path style="fill:#EA473B;" d="M256,7.559C118.791,7.559,7.56,118.792,7.558,256.001c0,137.209,111.233,248.44,248.441,248.44
	c137.21,0,248.441-111.231,248.441-248.44S393.211,7.559,256,7.559z M256,439.616c-101.407,0-183.615-82.208-183.615-183.614
	C72.386,154.593,154.594,72.386,256,72.386c101.408,0,183.614,82.208,183.614,183.615C439.615,357.408,357.408,439.616,256,439.616z
	"/>
<path style="fill:#E03B36;" d="M28.751,256.001C28.753,122.342,134.305,13.353,266.596,7.799
	C124.7,1.846,7.561,115.171,7.558,256.001c0,140.784,117.088,254.152,259.037,248.2C134.305,498.649,28.751,389.66,28.751,256.001z"
	/>
<path style="fill:#414356;" d="M218.507,224.255v-13.998H198.51v13.998c0,6.626,5.372,11.998,11.998,11.998h19.997
	C223.878,236.253,218.507,230.881,218.507,224.255z"/>
<path style="fill:#25B9C1;" d="M218.507,162.265c0-6.626,5.372-11.998,11.998-11.998h-19.997c-6.626,0-11.998,5.372-11.998,11.998
	v47.992h19.997V162.265z"/>
<path d="M191.011,276.246c0,13.231,10.765,23.996,23.996,23.996s23.996-10.765,23.996-23.996c0-13.231-10.765-23.996-23.996-23.996
	S191.011,263.015,191.011,276.246z M224.006,276.246c0,4.962-4.037,8.998-8.998,8.998s-8.998-4.036-8.998-8.998
	s4.037-8.998,8.998-8.998C219.968,267.247,224.006,271.284,224.006,276.246z"/>
<path d="M296.993,252.25c-13.231,0-23.996,10.765-23.996,23.996c0,13.231,10.765,23.996,23.996,23.996s23.996-10.765,23.996-23.996
	C320.989,263.015,310.224,252.25,296.993,252.25z M296.993,285.244c-4.961,0-8.998-4.036-8.998-8.998s4.037-8.998,8.998-8.998
	s8.998,4.036,8.998,8.998S301.954,285.244,296.993,285.244z"/>
<path d="M320.989,162.265c0-10.75-8.746-19.497-19.497-19.497c-9.643,0-81.342,0-90.984,0c-10.75,0-19.497,8.746-19.497,19.497
	c0,7.545,0,55.362,0,61.989c0,10.75,8.747,19.497,19.497,19.497h90.984c10.75,0,19.497-8.747,19.497-19.497
	C320.989,217.627,320.989,169.809,320.989,162.265z M206.009,162.265c0-2.481,2.019-4.499,4.499-4.499h37.993v44.992h-42.493
	V162.265z M305.992,224.255c0,2.481-2.019,4.499-4.499,4.499h-90.984c-2.481,0-4.499-2.019-4.499-4.499v-6.499
	c10.591,0,89.392,0,99.983,0V224.255z M305.992,202.759h-42.493v-44.992h37.993c2.481,0,4.499,2.019,4.499,4.499V202.759z"/>
<path d="M252.063,268.747c-4.141,0-7.499,3.356-7.499,7.499s3.357,7.499,7.499,7.499h7.874c4.141,0,7.499-3.356,7.499-7.499
	s-3.357-7.499-7.499-7.499H252.063z"/>
<path d="M153.847,378.844c3.226,17.544,26.051,22.359,36.131,7.734l9.547-13.85h112.95l9.547,13.85
	c3.733,5.415,9.892,8.648,16.475,8.648c15.969,0,25.64-18.02,16.452-31.348l-26.374-38.258c9.772-1.045,17.41-9.336,17.41-19.381
	V240.75c0-4.142-3.357-7.499-7.499-7.499c-4.141,0-7.499,3.356-7.499,7.499v65.489c0,2.481-2.019,4.499-4.499,4.499
	c-4.871,0-134.382,0-140.976,0c-2.481,0-4.499-2.019-4.499-4.499V136.268c0-2.481,2.019-4.499,4.499-4.499h140.976
	c2.481,0,4.499,2.019,4.499,4.499v69.488c0,4.142,3.357,7.499,7.499,7.499c4.141,0,7.499-3.356,7.499-7.499v-69.488
	c0-10.75-8.746-19.497-19.497-19.497H185.512c-10.75,0-19.497,8.746-19.497,19.497v169.971c0,10.044,7.638,18.336,17.41,19.381
	l-26.374,38.258C154.019,368.277,152.881,373.591,153.847,378.844z M310.439,325.737l32.163,46.654
	c1.558,2.26,1.013,5.375-1.281,6.954c-2.297,1.585-5.403,0.966-6.952-1.279l-11.781-17.09c0,0-24.29-35.234-24.294-35.239H310.439z
	 M231.921,325.737h48.159l6.892,9.998h-61.943L231.921,325.737z M297.311,350.733l4.825,6.999h-92.272
	c3.19-4.627,2.091-3.032,4.825-6.999H297.311z M201.562,325.737h12.144c-8.372,12.143-14.338,20.797-36.076,52.33
	c-2.531,3.671-8.234,2.416-9.032-1.935C168.081,373.327,166.643,376.39,201.562,325.737z"/>
<path d="M256,64.887c-105.38,0-191.113,85.733-191.114,191.114c0,99.095,75.58,181.041,172.91,190.244
	c4.153,0.388,7.784-2.66,8.172-6.76c0.39-4.123-2.637-7.782-6.76-8.172C148.378,422.726,79.883,347.358,79.883,256
	c0.001-97.111,79.006-176.117,176.117-176.117S432.115,158.89,432.115,256c0,91.357-68.495,166.725-159.326,175.314
	c-4.123,0.39-7.149,4.048-6.76,8.172c0.39,4.123,4.049,7.144,8.172,6.76c97.361-9.206,172.91-91.182,172.91-190.244
	C447.113,150.62,361.38,64.887,256,64.887z"/>
<path d="M436.977,75.023c-100.026-100.027-261.918-100.036-361.953,0C-25.003,175.052-25.011,336.942,75.023,436.978
	c100.028,100.026,261.919,100.035,361.954,0C537.005,336.949,537.012,175.059,436.977,75.023z M256,496.943
	c-132.856,0-240.943-108.085-240.943-240.942C15.059,123.144,123.145,15.058,256,15.058c132.856,0,240.943,108.086,240.943,240.944
	C496.943,388.858,388.856,496.943,256,496.943z"/>
<g>
</g>
<g>
</g>
<g>
</g>
<g>
</g>
<g>
</g>
<g>
</g>
<g>
</g>
<g>
</g>
<g>
</g>
<g>
</g>
<g>
</g>
<g>
</g>
<g>
</g>
<g>
</g>
<g>
</g>
</svg>
